<?xml version="1.0" encoding="UTF-8"?>
<svg xmlns="http://www.w3.org/2000/svg" width="1200" height="630" viewBox="0 0 1200 630" fill="none">
  <defs>
    <linearGradient id="bg" x1="0" y1="0" x2="1200" y2="630" gradientUnits="userSpaceOnUse">
      <stop offset="0%" stop-color="#0B0F18"/>
      <stop offset="45%" stop-color="#121826"/>
      <stop offset="100%" stop-color="#0E1118"/>
    </linearGradient>
    <linearGradient id="gold" x1="0" y1="0" x2="1" y2="1">
      <stop offset="0%" stop-color="#E8B84A"/>
      <stop offset="50%" stop-color="#D4A017"/>
      <stop offset="100%" stop-color="#F0C96B"/>
    </linearGradient>
    <radialGradient id="glow" cx="50%" cy="30%" r="60%">
      <stop offset="0%" stop-color="#D4A017" stop-opacity="0.18"/>
      <stop offset="100%" stop-color="#D4A017" stop-opacity="0"/>
    </radialGradient>
    <filter id="soft" x="-20%" y="-20%" width="140%" height="140%">
      <feGaussianBlur stdDeviation="24"/>
    </filter>
  </defs>

  <rect width="1200" height="630" fill="url(#bg)"/>
  <rect width="1200" height="630" fill="url(#glow)"/>
  <circle cx="980" cy="120" r="180" fill="#D4A017" opacity="0.06" filter="url(#soft)"/>
  <circle cx="180" cy="520" r="220" fill="#D4A017" opacity="0.05" filter="url(#soft)"/>
  <rect x="48" y="48" width="1104" height="534" rx="28" stroke="url(#gold)" stroke-width="2" opacity="0.35" fill="none"/>
  <rect x="64" y="64" width="1072" height="502" rx="20" stroke="#FFFFFF" stroke-width="1" opacity="0.08" fill="none"/>

  <rect x="96" y="96" width="72" height="72" rx="18" fill="#1A2030" stroke="url(#gold)" stroke-width="1.5"/>
  <text x="132" y="148" text-anchor="middle" font-family="Georgia, 'Times New Roman', serif" font-size="42" fill="url(#gold)">&#937;</text>

  <text x="188" y="128" font-family="Georgia, 'Times New Roman', serif" font-size="34" font-weight="600" fill="#F5F0E8">Ecclesia</text>
  <text x="188" y="158" font-family="Arial, Helvetica, sans-serif" font-size="16" fill="#9CA3AF" letter-spacing="2">ONLINE</text>
  <text x="96" y="260" font-family="Georgia, 'Times New Roman', serif" font-size="56" font-weight="600" fill="#F5F0E8">Devocional Ecclesia</text>
  <rect x="96" y="286" width="120" height="4" rx="2" fill="url(#gold)"/>

  <text x="96" y="360" font-family="Arial, Helvetica, sans-serif" font-size="28" fill="#C8CDD8">
    <tspan x="96" dy="0">Uma palavra di&#225;ria para fortalecer a f&#233;</tspan>
    <tspan x="96" dy="42">e aproximar sua igreja.</tspan>
  </text>

  <rect x="96" y="500" width="340" height="52" rx="26" fill="#1A2030" stroke="url(#gold)" stroke-width="1" opacity="0.9"/>
  <text x="266" y="533" text-anchor="middle" font-family="Arial, Helvetica, sans-serif" font-size="18" font-weight="600" fill="url(#gold)" letter-spacing="1">ecclesiabr.online/devocional</text>

  <path d="M1050 520 L1100 520 L1100 570" stroke="url(#gold)" stroke-width="2" opacity="0.5" fill="none"/>
  <path d="M100 110 L150 110 L150 60" stroke="url(#gold)" stroke-width="2" opacity="0.5" fill="none"/>
</svg>
