<svg xmlns="http://www.w3.org/2000/svg" viewBox="0 0 800 500" fill="none">
  <defs>
    <linearGradient id="bg" x1="0" y1="0" x2="800" y2="500" gradientUnits="userSpaceOnUse">
      <stop stop-color="#334155"/>
      <stop offset="0.5" stop-color="#475569"/>
      <stop offset="1" stop-color="#b45309"/>
    </linearGradient>
  </defs>
  <rect width="800" height="500" fill="url(#bg)"/>
  <rect x="200" y="120" width="400" height="280" rx="8" fill="#64748b" opacity="0.5"/>
  <rect x="220" y="140" width="360" height="240" fill="#94a3b8"/>
  <path d="M240 200h320M240 260h320M240 320h200" stroke="#cbd5e1" stroke-width="3" opacity="0.5"/>
  <rect x="480" y="300" width="80" height="100" fill="#475569"/>
  <path d="M320 380l80-120 80 120" stroke="#fbbf24" stroke-width="6" stroke-linecap="round" stroke-linejoin="round"/>
  <rect x="300" y="360" width="200" height="40" rx="4" fill="#78716c"/>
  <g transform="translate(520 200)">
    <rect x="0" y="40" width="16" height="100" rx="4" fill="#fcd34d" transform="rotate(-30 8 90)"/>
    <rect x="60" y="20" width="12" height="80" fill="#94a3b8"/>
    <path d="M66 20l40-30" stroke="#64748b" stroke-width="8" stroke-linecap="round"/>
  </g>
  <g transform="translate(140 220)">
    <path d="M0 60h80l-20-40H20z" fill="#f59e0b"/>
    <rect x="30" y="60" width="20" height="60" fill="#78716c"/>
  </g>
  <circle cx="400" cy="100" r="24" fill="#fef3c7" opacity="0.25"/>
  <ellipse cx="400" cy="420" rx="200" ry="20" fill="#000" opacity="0.15"/>
</svg>
