<svg xmlns="http://www.w3.org/2000/svg" viewBox="0 0 800 500" fill="none">
  <defs>
    <linearGradient id="bg" x1="0" y1="0" x2="800" y2="500" gradientUnits="userSpaceOnUse">
      <stop stop-color="#991b1b"/>
      <stop offset="0.5" stop-color="#dc2626"/>
      <stop offset="1" stop-color="#ea580c"/>
    </linearGradient>
  </defs>
  <rect width="800" height="500" fill="url(#bg)"/>
  <path d="M0 0 L800 500 M800 0 L0 500" stroke="#fff" stroke-width="1" opacity="0.06"/>
  <polygon points="400,100 520,360 280,360" fill="#fef3c7" opacity="0.95"/>
  <polygon points="400,160 480,340 320,340" fill="#dc2626"/>
  <rect x="385" y="220" width="30" height="70" rx="4" fill="#fef3c7"/>
  <circle cx="400" cy="310" r="12" fill="#fef3c7"/>
  <circle cx="400" cy="400" r="60" fill="#000" opacity="0.12"/>
  <path d="M520 380h160M580 320v120" stroke="#fff" stroke-width="8" stroke-linecap="round" opacity="0.35"/>
  <rect x="120" y="380" width="100" height="60" rx="8" fill="#fff" opacity="0.15"/>
  <path d="M140 410h60M140 430h40" stroke="#fff" stroke-width="4" stroke-linecap="round" opacity="0.3"/>
  <circle cx="650" cy="140" r="20" fill="#fbbf24" opacity="0.5"/>
  <circle cx="150" cy="160" r="16" fill="#fbbf24" opacity="0.4"/>
</svg>
